<svg xmlns="http://www.w3.org/2000/svg" width="20" height="20" viewBox="0 0 20 20"><path d="M0,0H20V20H0Z" fill="none"/><path d="M3.75,6h12.5V4.5H3.75Z" transform="translate(0 0.545)" opacity="0.3" style="isolation:isolate"/><path d="M5.694,9.15H7.417v1.7H5.694ZM16.028,3.2h-.861V1.5H13.444V3.2H6.556V1.5H4.833V3.2H3.972A1.7,1.7,0,0,0,2.258,4.9L2.25,16.8a1.71,1.71,0,0,0,1.722,1.7H16.028a1.716,1.716,0,0,0,1.722-1.7V4.9A1.716,1.716,0,0,0,16.028,3.2Zm0,13.6H3.972V8.3H16.028Zm0-10.2H3.972V4.9H16.028ZM12.583,9.15h1.722v1.7H12.583Zm-3.444,0h1.722v1.7H9.139Z" transform="translate(0 0)"/></svg>