<svg xmlns="http://www.w3.org/2000/svg" width="40" height="40" viewBox="0 0 40 40"><path d="M0,0H30V30H0Z" transform="translate(5 6)" fill="none"/><circle cx="20" cy="20" r="20" fill="rgba(219,169,1,0.12)"/><path d="M5.156,11,5,11.44v6.027H23.24V11.44L23.084,11Zm3.1,5.174a1.94,1.94,0,1,1,1.954-1.94A1.945,1.945,0,0,1,8.257,16.174Zm11.726,0a1.94,1.94,0,1,1,1.954-1.94A1.945,1.945,0,0,1,19.983,16.174Z" transform="translate(5.88 8.686)" opacity="0.3" style="isolation:isolate"/><path d="M23.494,5.319A1.926,1.926,0,0,0,21.666,4H7.506A1.938,1.938,0,0,0,5.678,5.319L3,13.142V23.59A1.3,1.3,0,0,0,4.287,24.9H5.575A1.3,1.3,0,0,0,6.862,23.59V22.284H22.31V23.59A1.3,1.3,0,0,0,23.6,24.9h1.287a1.3,1.3,0,0,0,1.287-1.306V13.142ZM7.956,6.612H21.2l1.339,3.918H6.617ZM23.6,19.672H5.575V13.586l.154-.444H23.456l.142.444Z" transform="translate(5.414 6.552)"/><circle cx="1.821" cy="1.821" r="1.821" transform="translate(12.11 21.207)"/><circle cx="1.821" cy="1.821" r="1.821" transform="translate(24.262 21.207)"/></svg>