<svg xmlns="http://www.w3.org/2000/svg" width="18" height="18" viewBox="0 0 18 18"><path d="M0,0H18V18H0Z" fill="none"/><path d="M9,3A3.751,3.751,0,0,0,5.25,6.75c0,2.138,2.19,5.407,3.75,7.41,1.582-2.017,3.75-5.25,3.75-7.41A3.751,3.751,0,0,0,9,3ZM9,8.625A1.875,1.875,0,1,1,10.875,6.75,1.876,1.876,0,0,1,9,8.625Z" fill="#d61010" opacity="0.3" style="isolation:isolate"/><path d="M9,1.5A5.247,5.247,0,0,0,3.75,6.75C3.75,10.688,9,16.5,9,16.5s5.25-5.812,5.25-9.75A5.247,5.247,0,0,0,9,1.5ZM5.25,6.75a3.75,3.75,0,0,1,7.5,0c0,2.16-2.16,5.393-3.75,7.41C7.44,12.157,5.25,8.888,5.25,6.75Z" fill="#b70505"/><circle cx="1.875" cy="1.875" r="1.875" transform="translate(7.125 4.875)" fill="#b70505"/></svg>