<svg xmlns="http://www.w3.org/2000/svg" width="40" height="40" viewBox="0 0 40 40"><rect width="32" height="32" transform="translate(4 6)" fill="none"/><circle cx="20" cy="20" r="20" fill="rgba(219,169,1,0.12)"/><path d="M5.561,11.75h0m12.318-8H12V6.417h4.788l2.667,2.667H14.667L9.333,11.75,6.667,9.083H0V11.75H5.333a5.333,5.333,0,1,0,5.333,5.333l2.667,2.667h4l4.652-8.133,1.348,1.346a5.295,5.295,0,1,0,3.333-1.212,5.714,5.714,0,0,0-.708.068L23.212,9.083h3.454v-4l-4.96,2.48L17.879,3.75Zm8.788,16a2.667,2.667,0,1,1,2.667-2.667,2.675,2.675,0,0,1-2.667,2.667Zm-21.333,0A2.667,2.667,0,1,1,8,17.083,2.675,2.675,0,0,1,5.333,19.75Z" transform="translate(4 8.917)"/></svg>