<svg xmlns="http://www.w3.org/2000/svg" xmlns:xlink="http://www.w3.org/1999/xlink" width="43.313" height="44.813" viewBox="0 -10 43.313 44.813"><defs><filter id="a" x="0" y="1.5" width="43.313" height="43.313" filterUnits="userSpaceOnUse"><feOffset dy="3" input="SourceAlpha"/><feGaussianBlur stdDeviation="1.5" result="b"/><feFlood flood-opacity="0.424"/><feComposite operator="in" in2="b"/><feComposite in="SourceGraphic"/></filter></defs><g transform="translate(1.5)"><g transform="matrix(1, 0, 0, 1, -1.5, 0)" filter="url(#a)"><path d="M0,0H34.313V34.313H0Z" transform="translate(4.5 3)" fill="none"/></g><circle cx="20" cy="20" r="20" fill="rgba(195,11,11,0.12)"/><path d="M14.747,4c-5.117,0-7.231.7-8.12,1.458H22.852C21.978,4.7,19.864,4,14.747,4ZM6,20.765a2.184,2.184,0,0,0,2.187,2.187h13.12a2.184,2.184,0,0,0,2.187-2.187v-5.1H6ZM19.849,17.12a2.187,2.187,0,1,1-2.187,2.187A2.184,2.184,0,0,1,19.849,17.12Zm-10.2,0a2.187,2.187,0,1,1-2.187,2.187A2.184,2.184,0,0,1,9.645,17.12Z" transform="translate(5.409 4.586)" opacity="0.3" style="isolation:isolate"/><ellipse cx="1.716" cy="2.288" rx="1.716" ry="2.288" transform="translate(13.404 21.224)"/><ellipse cx="1.716" cy="2.288" rx="1.716" ry="2.288" transform="translate(23.477 21.224)"/><path d="M15.325,2C9.662,2,4,2.711,4,7.689V21.2a4.972,4.972,0,0,0,4.955,4.978L6.831,28.312v.711H9.662l2.831-2.845h5.662l2.831,2.845h2.831v-.711L21.7,26.179A4.972,4.972,0,0,0,26.65,21.2V7.689C26.65,2.711,20.987,2,15.325,2Zm0,2.845c4.969,0,7.021.683,7.885,1.422H7.44C8.3,5.527,10.356,4.845,15.325,4.845ZM6.831,9.111h7.078v4.267H6.831ZM23.819,21.2A2.126,2.126,0,0,1,21.7,23.334H8.955A2.126,2.126,0,0,1,6.831,21.2V16.223H23.819Zm0-7.823H16.741V9.111h7.078Z" transform="translate(4.831 3.916)"/></g></svg>