<svg xmlns="http://www.w3.org/2000/svg" width="46" height="46" viewBox="0 0 46 46"><path d="M0,0H46V46H0Z" fill="none"/><path d="M18.333,3A15.333,15.333,0,1,0,33.667,18.333,15.329,15.329,0,0,0,18.333,3ZM8.29,12.238l2.032-2.032,2.032,2.032,2.032-2.032,2.032,2.032L14.385,14.27,16.417,16.3l-2.032,2.032L12.353,16.3l-2.032,2.032L8.29,16.3l2.032-2.032Zm.248,15.678a10.506,10.506,0,0,1,19.591,0ZM28.377,16.3l-2.032,2.032L24.313,16.3l-2.032,2.032L20.25,16.3l2.032-2.032L20.25,12.238l2.032-2.032,2.032,2.032,2.032-2.032,2.032,2.032L26.345,14.27Z" transform="translate(4.667 4.667)" fill="#c30b0b" opacity="0.3" style="isolation:isolate"/><path d="M20.667,23.542a10.54,10.54,0,0,0-9.8,6.708H30.462A10.535,10.535,0,0,0,20.667,23.542Zm-8.012-2.875,2.032-2.032,2.032,2.032,2.032-2.032L16.718,16.6l2.032-2.032L16.718,12.54l-2.032,2.032L12.655,12.54l-2.032,2.032L12.655,16.6l-2.032,2.032ZM20.646,1.5A19.167,19.167,0,1,0,39.833,20.667,19.143,19.143,0,0,0,20.646,1.5Zm.02,34.5A15.333,15.333,0,1,1,36,20.667,15.329,15.329,0,0,1,20.667,36Zm8.012-23.46-2.032,2.032L24.615,12.54l-2.032,2.032L24.615,16.6l-2.032,2.032,2.032,2.032,2.032-2.032,2.032,2.032,2.032-2.032L28.678,16.6l2.032-2.032Z" transform="translate(2.333 2.333)" fill="#c30b0b"/></svg>